<?xml version="1.0" standalone="no"?>
<!DOCTYPE svg PUBLIC "-//W3C//DTD SVG 20010904//EN"
 "http://www.w3.org/TR/2001/REC-SVG-20010904/DTD/svg10.dtd">
<svg version="1.0" xmlns="http://www.w3.org/2000/svg"
 width="50.000000pt" height="50.000000pt" viewBox="0 0 100.000000 100.000000"
 preserveAspectRatio="xMidYMid meet">

<g transform="translate(0.000000,102.000000) scale(0.100000,-0.100000)"
fill="#000000" stroke="none">
<path d="M0 1008 c0 -10 103 -13 485 -11 l485 2 0 -489 0 -490 -245 0 c-211 0
-245 2 -245 15 0 13 32 15 230 15 l230 0 0 455 0 455 -445 0 c-245 0 -448 0
-452 0 -5 0 -9 -103 -11 -230 -2 -195 -5 -230 -17 -230 -19 0 -19 -19 0 -26
13 -5 15 -36 15 -193 0 -248 -18 -231 233 -231 l187 0 12 -25 11 -25 253 0
253 0 7 22 c5 13 7 26 6 31 -1 4 3 7 9 7 9 0 10 119 5 468 -6 414 -9 468 -24
480 -23 18 -982 18 -982 0z m494 -99 c-3 -5 -95 -9 -205 -9 l-199 0 0 -395 0
-395 395 0 395 0 2 202 c2 150 6 202 16 206 9 3 12 -45 12 -217 l0 -221 -425
0 -425 0 0 425 0 425 208 2 c194 3 239 -2 226 -23z m214 -8 c5 -33 27 -53 53
-49 12 2 24 -2 26 -8 4 -12 -69 -94 -83 -94 -5 0 -18 14 -27 30 -10 17 -25 30
-33 30 -8 0 -14 4 -14 9 0 14 -87 51 -121 51 -30 0 -31 1 -16 18 10 10 17 24
17 31 0 8 26 11 98 9 94 -3 97 -4 100 -27z m154 12 c10 -9 18 -28 18 -42 0
-29 -42 -93 -76 -116 -32 -21 -30 -35 4 -35 32 1 84 43 76 63 -3 8 2 17 10 20
18 7 23 -27 6 -38 -5 -3 -10 -19 -10 -36 l0 -29 -85 0 c-47 0 -85 3 -85 6 0 4
27 35 60 71 45 47 60 71 60 93 0 41 -36 52 -64 18 -12 -14 -27 -23 -33 -21
-19 7 -16 40 5 52 27 16 93 13 114 -6z m-599 -50 c4 -3 3 -11 -2 -17 -21 -27
-19 -70 5 -105 23 -35 24 -42 24 -224 0 -177 -6 -220 -31 -237 -4 -3 -9 -20
-12 -37 -4 -27 0 -37 25 -58 30 -25 34 -26 160 -24 116 2 134 5 181 28 67 34
107 89 112 158 5 55 -14 124 -42 155 -14 16 -14 21 6 63 12 26 24 60 28 76 5
29 6 29 77 29 39 0 81 3 94 6 21 6 22 4 22 -59 0 -60 -3 -69 -30 -97 l-30 -31
0 -169 c0 -152 -2 -169 -17 -174 -27 -8 -701 -2 -709 7 -8 8 -7 694 1 708 7
10 128 13 138 2z m326 -53 c63 -35 84 -68 89 -139 4 -49 0 -66 -17 -94 -12
-19 -29 -38 -37 -41 -13 -5 -10 -13 19 -46 75 -82 69 -194 -14 -258 -35 -27
-58 -31 -214 -33 l-139 -1 -2 35 c-1 29 3 37 20 39 21 3 21 8 24 245 l2 243
-22 -3 c-20 -2 -23 3 -24 33 0 19 1 39 4 44 2 4 64 6 136 4 117 -3 136 -6 175
-28z"/>
<path d="M460 660 c0 -55 4 -100 9 -100 21 0 76 48 79 70 7 43 -17 99 -48 115
-16 8 -31 15 -35 15 -3 0 -5 -45 -5 -100z"/>
<path d="M460 380 c0 -109 1 -110 57 -89 15 5 31 16 35 22 11 18 10 95 -3 119
-9 16 -64 48 -84 48 -3 0 -5 -45 -5 -100z m62 17 c8 4 9 -2 4 -18 -4 -13 -8
-30 -8 -36 -2 -20 -8 -16 -18 12 -5 14 -6 33 -3 42 4 11 8 13 11 5 2 -7 9 -9
14 -5z"/>
</g>
</svg>
